<svg width="138" height="138" viewBox="0 0 138 138" fill="none" xmlns="http://www.w3.org/2000/svg">
<path d="M138 69C138 107.108 107.108 138 69 138C30.8924 138 0 107.108 0 69C0 30.8924 30.8924 0 69 0C107.108 0 138 30.8924 138 69ZM12.42 69C12.42 100.248 37.7517 125.58 69 125.58C100.248 125.58 125.58 100.248 125.58 69C125.58 37.7517 100.248 12.42 69 12.42C37.7517 12.42 12.42 37.7517 12.42 69Z" fill="#1F1F1F"/>
<path d="M69.0555 6.22501C69.0885 2.82551 71.8736 0.0652895 75.2567 0.40085C85.1488 1.38204 94.7291 4.53904 103.309 9.67841C111.913 14.8324 119.254 21.8262 124.83 30.1385C126.709 32.9389 125.619 36.6689 122.674 38.3117C119.699 39.971 115.969 38.8666 114.012 36.0789C109.528 29.6904 103.75 24.3003 97.0343 20.2773C90.3246 16.2581 82.8687 13.7174 75.1563 12.7928C71.7715 12.3871 69.0224 9.63395 69.0555 6.22501Z" fill="#30B94D"/>
</svg>
