<svg width="189" height="189" viewBox="0 0 189 189" fill="none" xmlns="http://www.w3.org/2000/svg">
<path d="M179.202 95.0974C179.202 141.489 141.594 179.097 95.2024 179.097C48.8105 179.097 11.2024 141.489 11.2024 95.0974C11.2024 48.7055 48.8105 11.0974 95.2024 11.0974C141.594 11.0974 179.202 48.7055 179.202 95.0974ZM26.3224 95.0974C26.3224 133.139 57.161 163.977 95.2024 163.977C133.244 163.977 164.082 133.139 164.082 95.0974C164.082 57.056 133.244 26.2174 95.2024 26.2174C57.161 26.2174 26.3224 57.056 26.3224 95.0974Z" fill="#1F1F1F"/>
<path d="M95.3072 18.6592C95.3457 14.4994 98.7541 11.1216 102.894 11.532C115.037 12.7356 126.798 16.6026 137.332 22.8956C147.882 29.1983 156.886 37.7466 163.73 47.9041C166.045 51.3389 164.705 55.9224 161.085 57.9343C157.445 59.9572 152.887 58.6074 150.49 55.2023C144.983 47.3806 137.888 40.7802 129.641 35.8533C121.398 30.9289 112.238 27.8161 102.765 26.6841C98.6276 26.1898 95.2686 22.8254 95.3072 18.6592Z" fill="#30B94D"/>
</svg>
