<svg width="189" height="189" viewBox="0 0 189 189" fill="none" xmlns="http://www.w3.org/2000/svg">
<path d="M179.202 95.0974C179.202 141.489 141.594 179.097 95.2024 179.097C48.8105 179.097 11.2024 141.489 11.2024 95.0974C11.2024 48.7055 48.8105 11.0974 95.2024 11.0974C141.594 11.0974 179.202 48.7055 179.202 95.0974ZM26.3224 95.0974C26.3224 133.139 57.161 163.977 95.2024 163.977C133.244 163.977 164.082 133.139 164.082 95.0974C164.082 57.056 133.244 26.2174 95.2024 26.2174C57.161 26.2174 26.3224 57.056 26.3224 95.0974Z" fill="#1F1F1F"/>
<path d="M177.165 106.872C170.518 152.653 128.163 184.398 82.5642 177.776C36.9653 171.155 5.38928 128.674 12.0372 82.8934C18.685 37.1127 61.0394 5.36776 106.638 11.9892C152.237 18.6107 183.813 61.0911 177.165 106.872ZM26.8987 85.0515C21.4474 122.592 47.3398 157.426 84.7309 162.855C122.122 168.285 156.853 142.254 162.304 104.714C167.755 67.1736 141.863 32.3397 104.472 26.9101C67.0806 21.4805 32.35 47.5113 26.8987 85.0515Z" fill="#30B94D"/>
</svg>
