<svg width="138" height="138" viewBox="0 0 138 138" fill="none" xmlns="http://www.w3.org/2000/svg">
<path d="M138 69C138 107.108 107.108 138 69 138C30.8924 138 0 107.108 0 69C0 30.8924 30.8924 0 69 0C107.108 0 138 30.8924 138 69ZM12.42 69C12.42 100.248 37.7517 125.58 69 125.58C100.248 125.58 125.58 100.248 125.58 69C125.58 37.7517 100.248 12.42 69 12.42C37.7517 12.42 12.42 37.7517 12.42 69Z" fill="#1F1F1F"/>
<path d="M135.745 78.3328C130.308 115.772 95.7723 141.747 58.6068 136.35C21.4412 130.953 -4.28026 96.2279 1.15628 58.789C6.59281 21.3502 41.1286 -4.62498 78.2942 0.771873C115.46 6.16873 141.181 40.8939 135.745 78.3328ZM13.2692 60.548C8.81127 91.2478 29.9029 119.722 60.3786 124.148C90.8544 128.573 119.174 107.274 123.632 76.5738C128.09 45.874 106.998 17.3993 76.5223 12.9739C46.0466 8.54848 17.7272 29.8481 13.2692 60.548Z" fill="#30B94D"/>
</svg>
