<svg width="116" height="117" viewBox="0 0 116 117" fill="none" xmlns="http://www.w3.org/2000/svg">
<path d="M116 58.4734C116 90.5059 90.0325 116.473 58 116.473C25.9675 116.473 0 90.5059 0 58.4734C0 26.4409 25.9675 0.473419 58 0.473419C90.0325 0.473419 116 26.4409 116 58.4734ZM10.44 58.4734C10.44 84.7401 31.7333 106.033 58 106.033C84.2667 106.033 105.56 84.7401 105.56 58.4734C105.56 32.2068 84.2667 10.9134 58 10.9134C31.7333 10.9134 10.44 32.2068 10.44 58.4734Z" fill="#1F1F1F"/>
<path d="M113.824 63.7874C109.802 94.7313 81.4575 116.556 50.5136 112.535C19.5697 108.514 -2.25545 80.1691 1.76579 49.2252C5.78702 18.2813 34.1319 -3.54383 65.0758 0.477408C96.0197 4.49864 117.845 32.8435 113.824 63.7874ZM11.851 50.5358C8.55358 75.9098 26.4502 99.1526 51.8242 102.45C77.1982 105.747 100.441 87.8508 103.738 62.4768C107.036 37.1028 89.1392 13.86 63.7652 10.5626C38.3912 7.2652 15.1484 25.1618 11.851 50.5358Z" fill="#30B94D"/>
</svg>
