<svg width="116" height="117" viewBox="0 0 116 117" fill="none" xmlns="http://www.w3.org/2000/svg">
<path d="M116 58.2855C116 90.318 90.0325 116.286 58 116.286C25.9675 116.286 0 90.318 0 58.2855C0 26.253 25.9675 0.28553 58 0.28553C90.0325 0.28553 116 26.253 116 58.2855ZM10.44 58.2855C10.44 84.5522 31.7333 105.846 58 105.846C84.2667 105.846 105.56 84.5522 105.56 58.2855C105.56 32.0189 84.2667 10.7255 58 10.7255C31.7333 10.7255 10.44 32.0189 10.44 58.2855Z" fill="#1F1F1F"/>
<path d="M57.4735 4.90441C57.456 2.09609 59.7229 -0.218495 62.5214 0.0164433C70.7608 0.708147 78.77 3.20214 85.9725 7.34635C93.175 11.4906 99.3561 17.1615 104.095 23.9372C105.704 26.2386 104.843 29.3616 102.406 30.7578C99.9691 32.154 96.8836 31.2901 95.2289 29.021C91.417 23.7936 86.5406 19.4066 80.9005 16.1613C75.2603 12.916 69.0169 10.9049 62.5818 10.2364C59.7885 9.94619 57.4911 7.71272 57.4735 4.90441Z" fill="#30B94D"/>
</svg>
