<svg width="32" height="32" viewBox="0 0 32 32" fill="none" xmlns="http://www.w3.org/2000/svg">
  <rect width="32" height="32" rx="6" fill="#30B94D"/>
  <path d="M26 8C24.89 7.65 23.67 7.5 22.5 7.5C20.55 7.5 18.45 7.9 17 9C15.55 7.9 13.45 7.5 11.5 7.5C9.55 7.5 7.45 7.9 6 9V22.65C6 22.9 6.25 23.15 6.5 23.15C6.6 23.15 6.65 23.1 6.75 23.1C8.1 22.45 10.05 22 11.5 22C13.45 22 15.55 22.4 17 23.5C18.35 22.65 20.8 22 22.5 22C24.15 22 25.85 22.3 27.25 23.05C27.35 23.1 27.4 23.1 27.5 23.1C27.75 23.1 28 22.85 28 22.6V9C27.4 8.55 26.75 8.25 26 8ZM26 21.5C24.9 21.15 23.7 21 22.5 21C20.8 21 18.35 21.65 17 22.5V10C18.35 9.15 20.8 8.5 22.5 8.5C23.7 8.5 24.9 8.65 26 9V21.5Z" fill="#F9F9F9"/>
</svg>
